<?xml version="1.0" standalone="no"?>
<!DOCTYPE svg PUBLIC "-//W3C//DTD SVG 20010904//EN"
 "http://www.w3.org/TR/2001/REC-SVG-20010904/DTD/svg10.dtd">
<svg version="1.0" xmlns="http://www.w3.org/2000/svg"
 width="547.000000pt" height="1280.000000pt" viewBox="0 0 547.000000 1280.000000"
 preserveAspectRatio="xMidYMid meet">
<metadata>
Created by potrace 1.15, written by Peter Selinger 2001-2017
</metadata>
<g transform="translate(0.000000,1280.000000) scale(0.100000,-0.100000)"
fill="#000000" stroke="none">
<path d="M2338 12794 c-5 -4 -52 -8 -105 -9 -118 -1 -167 -20 -244 -91 -56
-53 -79 -90 -79 -127 0 -15 -20 -47 -55 -86 -30 -34 -55 -66 -55 -72 0 -6 -40
-50 -88 -98 -54 -54 -97 -107 -112 -137 -30 -64 -36 -156 -17 -262 18 -101 16
-157 -6 -237 -21 -70 -20 -177 0 -274 11 -53 12 -79 2 -131 -6 -36 -9 -74 -6
-85 2 -11 5 -2 6 20 1 22 6 47 12 55 7 11 8 -7 3 -60 -4 -41 -6 -109 -4 -150
14 -277 -15 -407 -101 -464 -60 -40 -177 -154 -257 -251 -132 -159 -209 -239
-312 -323 -58 -47 -148 -127 -200 -177 -52 -50 -115 -107 -140 -126 -131 -99
-431 -363 -467 -410 -74 -97 -103 -151 -103 -190 0 -28 38 -113 156 -346 166
-329 219 -415 482 -783 125 -175 170 -246 202 -321 50 -117 60 -132 104 -153
48 -22 101 -20 171 9 67 28 74 29 109 15 l25 -9 -43 -93 c-24 -51 -55 -131
-70 -178 -14 -47 -32 -98 -38 -115 -6 -16 -12 -55 -13 -85 -1 -30 -10 -93 -21
-140 -15 -69 -19 -121 -18 -275 0 -176 3 -207 42 -425 23 -129 62 -378 87
-552 25 -175 66 -429 93 -565 l47 -248 0 -225 c-1 -145 -5 -246 -14 -285 -7
-33 -26 -117 -42 -187 -46 -201 -60 -317 -66 -563 -5 -242 11 -469 57 -800 32
-226 63 -561 62 -680 -1 -60 -7 -143 -15 -183 -14 -73 -10 -137 12 -194 11
-30 -16 -154 -68 -303 -52 -150 -89 -277 -96 -330 -4 -27 -20 -90 -36 -138
-32 -97 -37 -171 -15 -220 8 -18 35 -144 61 -282 26 -137 51 -253 54 -258 11
-12 331 -14 340 -2 4 5 20 66 36 135 15 69 43 181 62 250 l35 125 -12 165
c-14 192 -15 251 -5 376 5 57 4 98 -2 109 -8 13 -5 38 9 87 17 61 19 83 11
176 -7 85 -6 117 5 157 13 44 13 62 -2 155 -18 119 -21 263 -6 395 21 182 91
633 115 740 46 210 59 348 49 565 -5 107 -8 251 -7 320 1 117 4 133 41 250 36
113 114 443 141 595 6 33 20 157 31 275 11 118 31 303 44 410 21 177 23 234
22 610 l-1 416 60 -4 c97 -7 168 -47 240 -138 33 -42 70 -88 81 -102 12 -15
54 -88 94 -162 87 -161 214 -364 392 -624 116 -170 154 -239 345 -616 119
-234 246 -470 282 -525 127 -189 301 -440 347 -500 64 -81 130 -224 204 -439
72 -211 118 -312 240 -530 200 -360 386 -803 439 -1050 12 -54 32 -123 45
-155 22 -54 23 -63 13 -154 -8 -73 -8 -115 2 -175 10 -60 10 -88 1 -121 -6
-25 -9 -69 -5 -105 6 -67 -2 -153 -36 -379 l-22 -147 31 -163 c18 -89 39 -209
48 -267 9 -58 22 -111 29 -118 7 -8 46 -14 104 -17 51 -2 120 -7 155 -10 46
-5 65 -4 72 7 6 7 41 123 78 258 37 135 74 255 82 268 24 36 28 146 9 232 -9
41 -22 120 -29 175 -16 119 -45 256 -56 270 -12 15 -57 218 -66 291 -5 47 -2
75 11 115 28 83 23 124 -23 199 -73 121 -104 192 -137 324 -48 183 -116 510
-164 781 -23 127 -48 268 -57 314 -37 203 -175 491 -383 801 -265 395 -318
512 -387 853 -89 443 -169 765 -254 1022 l-50 150 14 144 c12 121 12 153 1
209 -12 62 -32 338 -28 389 1 13 13 34 26 47 18 18 27 41 32 83 12 95 42 199
79 269 l34 66 -18 41 -19 42 49 195 c26 107 56 258 66 335 24 186 25 498 2
650 -9 61 -19 135 -22 165 -3 30 -10 105 -16 165 -16 160 -38 346 -66 548 -16
121 -27 265 -34 445 -12 342 -33 437 -125 577 -52 77 -89 104 -218 160 -167
73 -475 222 -528 256 -33 21 -49 39 -59 68 -7 21 -9 44 -5 50 4 7 -1 34 -11
61 -10 27 -16 51 -13 54 2 2 19 1 37 -1 26 -4 32 -10 33 -32 0 -14 4 -35 8
-45 7 -18 9 -16 19 14 40 114 -35 289 -91 210 -14 -20 -14 -20 -27 9 -6 16 -9
34 -6 39 9 14 -4 42 -19 42 -15 0 -28 -27 -19 -41 3 -5 2 -23 -1 -40 l-7 -30
-22 24 c-20 22 -22 30 -15 83 4 32 8 68 8 79 1 18 3 18 21 -5 16 -20 22 -23
37 -14 20 12 30 71 15 86 -6 6 -2 29 11 61 30 73 31 245 3 276 -23 25 -34 26
-57 5 -16 -14 -18 -11 -24 63 -10 124 -41 259 -74 320 l-31 56 27 31 c58 69
77 153 50 219 -8 18 -33 49 -56 70 -32 29 -49 37 -79 37 -33 0 -43 7 -90 60
-38 43 -72 69 -125 95 -71 35 -173 56 -189 39z m-583 -541 c-18 -33 -33 -57
-58 -95 -24 -37 -30 -62 -27 -131 1 -54 -6 -93 -32 -159 -14 -38 -28 -35 -28
6 0 18 -7 50 -15 71 -34 81 6 187 104 275 36 33 67 60 69 60 1 0 -4 -12 -13
-27z m-118 -741 c12 -37 9 -72 -7 -72 -11 0 -20 37 -20 84 0 45 8 42 27 -12z
m-38 -85 c1 -10 -3 -15 -9 -12 -5 3 -10 23 -9 43 1 33 2 34 9 12 4 -14 8 -33
9 -43z m14 -42 c-3 -9 -8 -14 -10 -11 -3 3 -2 9 2 15 9 16 15 13 8 -4z m1357
-95 c0 -5 -7 -10 -15 -10 -8 0 -15 5 -15 10 0 6 7 10 15 10 8 0 15 -4 15 -10z
m10 -182 c0 -39 -13 -51 -24 -22 -8 21 -8 69 1 77 11 12 23 -16 23 -55z m-40
-43 c0 -30 -15 -33 -23 -5 -4 16 1 23 21 29 1 1 2 -10 2 -24z m-1338 -1194
c-5 -85 -22 -78 -22 11 0 36 4 58 13 61 6 2 12 4 13 3 0 0 -1 -34 -4 -75z
m-76 -73 c14 -136 9 -178 -50 -401 -17 -67 -28 -142 -34 -240 -10 -161 -24
-206 -88 -277 -27 -29 -32 -39 -17 -32 12 7 24 12 27 12 2 0 -4 -30 -14 -67
-10 -38 -24 -97 -30 -133 -6 -35 -18 -76 -26 -92 -8 -15 -10 -29 -5 -33 17
-10 49 44 81 142 35 106 71 172 121 218 l32 30 -6 -75 c-3 -41 -8 -84 -12 -95
-4 -14 -2 -12 9 5 18 30 22 7 6 -35 -5 -14 -6 -24 -1 -21 19 12 42 106 52 209
9 108 36 237 48 237 3 -1 17 -24 30 -52 13 -28 51 -82 83 -120 l60 -69 -11
-47 c-6 -26 -18 -94 -25 -152 -8 -58 -26 -139 -41 -180 -19 -51 -29 -99 -31
-150 -2 -55 -1 -65 5 -35 7 39 7 39 12 10 3 -26 6 -21 21 35 9 36 22 79 28 95
l12 30 20 -50 c13 -32 23 -82 26 -137 l4 -87 -52 -53 c-29 -29 -62 -69 -75
-88 -34 -52 -76 -87 -114 -94 -18 -3 -54 -21 -80 -39 -52 -37 -103 -59 -175
-78 -28 -7 -82 -34 -122 -61 -39 -26 -78 -48 -85 -48 -17 0 -113 226 -226 530
-95 256 -186 484 -219 550 -12 25 -47 76 -78 113 -31 38 -56 76 -56 86 0 23
32 51 105 91 120 66 194 128 395 329 179 179 353 331 380 331 5 0 -2 -25 -16
-56 -14 -31 -23 -59 -20 -61 2 -2 7 5 11 16 3 12 15 26 25 31 11 6 35 39 55
75 20 36 40 65 45 65 4 0 11 -37 16 -82z m-110 -36 c-17 -16 -18 -16 -5 5 7
12 15 20 18 17 3 -2 -3 -12 -13 -22z m115 -527 c-7 -100 -13 -131 -36 -183
-27 -60 -55 -89 -35 -36 6 15 17 74 26 133 15 102 41 217 49 210 2 -2 0 -58
-4 -124z m2124 -511 c14 -76 26 -173 26 -214 0 -82 -21 -411 -27 -421 -2 -4
-10 -154 -19 -333 -14 -301 -16 -329 -35 -354 -15 -20 -22 -49 -26 -98 -7
-110 -13 -144 -40 -233 -21 -70 -24 -88 -13 -107 10 -19 8 -29 -15 -68 -15
-25 -30 -46 -34 -46 -13 0 -65 73 -78 109 -7 20 -13 57 -14 83 0 26 -5 58 -11
72 -9 19 -7 49 10 138 12 62 21 153 21 201 0 62 4 95 15 111 9 13 15 41 14 62
-3 107 13 283 33 341 11 34 18 70 14 78 -3 9 1 47 10 83 18 77 35 204 34 246
0 16 6 39 14 51 31 47 76 255 76 355 0 45 9 94 16 87 2 -2 16 -66 29 -143z
m-1785 -62 c-11 -41 -20 -85 -21 -96 -1 -12 -5 -3 -11 19 -11 46 -4 108 19
180 l17 50 8 -38 c6 -28 2 -59 -12 -115z m49 -98 c-6 -7 -8 -17 -5 -23 3 -5 0
-35 -7 -67 -11 -49 -15 -54 -20 -34 -9 32 -9 108 0 150 l6 33 19 -23 c14 -17
16 -26 7 -36z m-42 -221 c-3 -10 -5 -4 -5 12 0 17 2 24 5 18 2 -7 2 -21 0 -30z"/>
<path d="M2940 11340 c0 -5 7 -10 15 -10 8 0 15 5 15 10 0 6 -7 10 -15 10 -8
0 -15 -4 -15 -10z"/>
</g>
</svg>
