<?xml version="1.0" standalone="no"?>
<!DOCTYPE svg PUBLIC "-//W3C//DTD SVG 20010904//EN"
 "http://www.w3.org/TR/2001/REC-SVG-20010904/DTD/svg10.dtd">
<svg version="1.0" xmlns="http://www.w3.org/2000/svg"
 width="640.000000pt" height="1280.000000pt" viewBox="0 0 640.000000 1280.000000"
 preserveAspectRatio="xMidYMid meet">
<metadata>
Created by potrace 1.15, written by Peter Selinger 2001-2017
</metadata>
<g transform="translate(0.000000,1280.000000) scale(0.100000,-0.100000)"
fill="#000000" stroke="none">
<path d="M2835 12719 c-243 -14 -457 -69 -682 -179 -272 -133 -313 -214 -266
-527 14 -98 15 -124 3 -211 -31 -240 14 -394 165 -561 39 -42 69 -87 84 -126
136 -341 371 -595 628 -679 50 -17 53 -20 68 -68 8 -28 14 -52 12 -53 -1 -1
-31 -8 -67 -15 -515 -101 -992 -262 -1405 -474 -155 -79 -425 -236 -424 -246
0 -3 46 -32 102 -65 75 -44 102 -66 102 -80 0 -20 32 -44 234 -174 46 -30 99
-68 117 -84 19 -15 38 -26 44 -22 11 7 6 -2 -83 -138 -309 -471 -457 -1076
-457 -1867 0 -299 14 -514 65 -981 111 -1032 187 -1905 201 -2318 6 -167 9
-190 20 -170 23 41 72 173 93 250 14 50 20 63 19 39 -2 -38 5 -66 31 -120 l16
-35 6 35 c11 59 10 -178 -1 -342 -14 -211 -35 -373 -75 -578 -48 -245 -61
-360 -84 -726 -12 -175 -23 -348 -27 -384 l-6 -65 23 35 c12 19 53 98 91 175
38 77 67 126 63 108 -8 -39 9 -73 35 -73 27 0 65 55 106 150 56 133 155 430
164 490 5 40 8 9 9 -118 3 -485 69 -914 191 -1253 30 -83 98 -239 129 -298 22
-42 23 -39 42 94 7 50 15 79 17 65 5 -34 16 -44 44 -37 34 9 55 60 77 190 20
117 22 136 71 547 42 351 78 584 101 652 10 32 19 68 20 80 0 13 9 -17 19 -66
22 -105 68 -268 78 -278 4 -4 24 34 44 85 20 50 37 82 37 70 1 -27 39 -40 70
-24 27 15 73 115 105 226 31 108 86 350 86 376 0 10 4 19 8 19 10 0 10 -4 21
130 l9 105 -4 -135 c-2 -74 -7 -211 -10 -305 -7 -194 6 -321 55 -521 49 -199
164 -507 250 -669 l32 -60 -5 40 c-8 65 -15 313 -8 274 6 -33 9 -36 30 -28 12
5 27 21 33 36 6 16 17 152 25 303 21 447 40 554 141 835 36 99 98 296 138 437
41 141 84 276 96 300 13 24 22 54 21 68 -3 50 18 -32 42 -170 50 -273 81 -665
71 -875 -3 -55 -7 -138 -10 -185 l-4 -85 19 36 c31 58 80 185 117 299 18 58
31 87 28 64 -5 -31 -2 -46 13 -64 17 -21 22 -23 37 -10 24 20 49 73 100 213
25 69 46 144 46 168 1 43 2 42 11 -16 13 -80 15 -428 4 -705 -9 -248 1 -377
49 -615 43 -215 140 -514 222 -690 l28 -60 5 170 c3 94 7 152 8 130 2 -34 6
-41 25 -43 46 -3 61 65 72 333 14 345 35 529 77 648 11 34 21 78 20 97 0 32 1
31 9 -10 4 -25 24 -145 44 -268 84 -523 168 -837 358 -1333 31 -80 75 -215 98
-300 24 -85 45 -157 48 -161 3 -4 5 100 5 230 -1 130 1 217 5 192 5 -36 10
-45 26 -45 44 0 50 40 50 335 0 596 -46 1467 -122 2315 -25 280 -27 335 -27
820 0 580 11 792 84 1620 12 135 33 389 52 635 20 260 17 1093 -5 1295 -57
531 -149 888 -308 1208 -96 193 -189 323 -347 490 -94 100 -116 148 -109 236
6 77 16 102 153 362 57 107 107 213 112 235 10 46 -3 99 -18 74 -5 -8 -10 -10
-10 -5 0 6 21 48 45 94 25 46 43 86 41 89 -13 13 -1416 -115 -1617 -147 -34
-6 -64 -9 -66 -7 -2 1 -7 24 -12 50 -7 37 -6 49 5 53 7 2 18 2 24 -2 6 -4 9
-1 8 7 -2 8 6 13 19 12 12 0 21 4 20 10 -1 6 6 10 15 10 10 -1 16 3 15 10 -1
6 6 10 16 9 10 0 16 1 13 4 -2 3 21 26 52 53 115 96 184 183 251 317 37 75 91
231 91 265 0 9 6 23 14 30 17 18 59 134 76 211 7 31 16 57 19 57 11 0 16 122
15 350 -1 196 -4 244 -27 375 -67 374 -96 416 -337 469 -219 48 -430 66 -645
55z"/>
</g>
</svg>
